<svg viewBox="0 0 200 200" xmlns="http://www.w3.org/2000/svg">
  <!-- Background -->
  <rect width="200" height="200" fill="white" rx="20"/>
  
  <!-- Colorful squares grid -->
  <rect x="30" y="30" width="35" height="35" fill="#FF6B9D" rx="4"/>
  <rect x="70" y="30" width="35" height="35" fill="#FFC75F" rx="4"/>
  <rect x="110" y="30" width="35" height="35" fill="#845EC2" rx="4"/>
  <rect x="150" y="30" width="20" height="35" fill="#00D9FF" rx="4"/>
  
  <rect x="30" y="70" width="35" height="35" fill="#00D9FF" rx="4"/>
  <rect x="70" y="70" width="35" height="35" fill="#FF6B9D" rx="4"/>
  <rect x="110" y="70" width="35" height="35" fill="#FFC75F" rx="4"/>
  <rect x="150" y="70" width="20" height="35" fill="#845EC2" rx="4"/>
  
  <rect x="30" y="110" width="35" height="35" fill="#845EC2" rx="4"/>
  <rect x="70" y="110" width="35" height="35" fill="#00D9FF" rx="4"/>
  <rect x="110" y="110" width="35" height="35" fill="#FF6B9D" rx="4"/>
  <rect x="150" y="110" width="20" height="35" fill="#FFC75F" rx="4"/>
  
  <rect x="30" y="150" width="35" height="20" fill="#FFC75F" rx="4"/>
  <rect x="70" y="150" width="35" height="20" fill="#845EC2" rx="4"/>
  <rect x="110" y="150" width="35" height="20" fill="#00D9FF" rx="4"/>
  <rect x="150" y="150" width="20" height="20" fill="#FF6B9D" rx="4"/>
</svg>
